<svg width="32" height="32" viewBox="0 0 32 32" fill="none" xmlns="http://www.w3.org/2000/svg">
  <!-- Brain outline -->
  <path d="M16 4C12 4 8 6 8 10C8 8 6 10 6 14C6 18 8 20 10 22C10 24 12 26 16 26C20 26 22 24 22 22C24 20 26 18 26 14C26 10 24 8 24 10C24 6 20 4 16 4Z" 
        fill="#7207ab" 
        stroke="#4a148c" 
        stroke-width="1.5" 
        stroke-linejoin="round"/>
  
  <!-- Brain wrinkles/folds -->
  <path d="M12 8C10 10 10 12 12 14" 
        stroke="#4a148c" 
        stroke-width="1" 
        stroke-linecap="round" 
        fill="none"/>
  <path d="M20 8C22 10 22 12 20 14" 
        stroke="#4a148c" 
        stroke-width="1" 
        stroke-linecap="round" 
        fill="none"/>
  <path d="M14 12C12 14 12 16 14 18" 
        stroke="#4a148c" 
        stroke-width="1" 
        stroke-linecap="round" 
        fill="none"/>
  <path d="M18 12C20 14 20 16 18 18" 
        stroke="#4a148c" 
        stroke-width="1" 
        stroke-linecap="round" 
        fill="none"/>
  
  <!-- Neural connections -->
  <circle cx="13" cy="10" r="1" fill="#ffffff" opacity="0.8"/>
  <circle cx="19" cy="10" r="1" fill="#ffffff" opacity="0.8"/>
  <circle cx="15" cy="14" r="1" fill="#ffffff" opacity="0.8"/>
  <circle cx="17" cy="14" r="1" fill="#ffffff" opacity="0.8"/>
  
  <!-- Connection lines -->
  <path d="M13 10L15 14M19 10L17 14M15 14L17 14" 
        stroke="#ffffff" 
        stroke-width="0.5" 
        opacity="0.6" 
        stroke-linecap="round"/>
</svg>

